<svg width="900" height="520" viewBox="0 0 900 520" xmlns="http://www.w3.org/2000/svg" fill="none">
  <rect width="900" height="520" rx="34" fill="#070C1D"/>
  <circle cx="190" cy="120" r="170" fill="url(#bg1)" fill-opacity="0.6"/>
  <circle cx="745" cy="460" r="205" fill="url(#bg2)" fill-opacity="0.65"/>
  <rect x="78" y="90" width="744" height="342" rx="26" fill="#0C1430" stroke="#5166AD" stroke-opacity="0.45"/>
  <rect x="120" y="136" width="300" height="24" rx="12" fill="#90AFFF" fill-opacity="0.82"/>
  <rect x="120" y="177" width="210" height="15" rx="7.5" fill="#6F7FB6" fill-opacity="0.7"/>
  <rect x="120" y="224" width="660" height="78" rx="16" fill="#101C40"/>
  <rect x="145" y="247" width="146" height="18" rx="9" fill="#88A8FF" fill-opacity="0.9"/>
  <rect x="145" y="272" width="190" height="10" rx="5" fill="#6071A6" fill-opacity="0.88"/>
  <rect x="120" y="324" width="205" height="76" rx="16" fill="#111F47"/>
  <rect x="351" y="324" width="205" height="76" rx="16" fill="#111F47"/>
  <rect x="582" y="324" width="198" height="76" rx="16" fill="#111F47"/>
  <text x="120" y="80" fill="#E9EEFF" font-family="Sora, Arial" font-size="26" font-weight="700">Banking Application</text>
  <defs>
    <radialGradient id="bg1" cx="0" cy="0" r="1" gradientUnits="userSpaceOnUse" gradientTransform="translate(190 120) rotate(90) scale(170)">
      <stop stop-color="#4B7AFF"/>
      <stop offset="1" stop-color="#4B7AFF" stop-opacity="0"/>
    </radialGradient>
    <radialGradient id="bg2" cx="0" cy="0" r="1" gradientUnits="userSpaceOnUse" gradientTransform="translate(745 460) rotate(90) scale(205)">
      <stop stop-color="#8962FF"/>
      <stop offset="1" stop-color="#8962FF" stop-opacity="0"/>
    </radialGradient>
  </defs>
</svg>
